<?xml version="1.0" encoding="iso-8859-1"?>
<!DOCTYPE svg PUBLIC "-//W3C//DTD SVG 1.1//EN" "http://www.w3.org/Graphics/SVG/1.1/DTD/svg11.dtd">
<svg xmlns="http://www.w3.org/2000/svg" xmlns:xlink="http://www.w3.org/1999/xlink" version="1.1" id="Capa_1" x="0px" y="0px" width="512px" height="512px" viewBox="0 0 464.525 464.525" style="enable-background:new 0 0 464.525 464.525;" xml:space="preserve">
    <g>
	    <path d="M347.421,161.14c10.463,14.697,18.733,31.051,24.339,48.592c-8.416-6.07-18.366-11.678-29.761-16.717     c-6.037-2.674-12.403-5.145-19.033-7.416l-12.254,12.252c-2.784,2.795-6.326,4.688-10.223,5.459l-19.24,3.816     c2.877,17.883,4.377,36.795,4.377,56.207c0,22.236-1.965,43.82-5.724,63.955c-23.599,4.805-49.552,7.334-76.455,7.334     c-26.902,0-52.849-2.529-76.452-7.334c-3.752-20.135-5.717-41.719-5.717-63.955s1.965-43.814,5.717-63.951     c23.604-4.801,49.55-7.338,76.452-7.338c17.337,0,34.267,1.061,50.433,3.09c-1.171-3.322-1.464-6.939-0.753-10.51l2.773-13.971     c-16.894-2.08-34.493-3.166-52.455-3.166c-24.396,0-48.151,1.986-70.338,5.785c3.935-13.762,8.795-26.553,14.537-38.023     c15.418-30.855,35.763-48.547,55.801-48.547c20.043,0,40.384,17.691,55.809,48.547c2.129,4.25,4.132,8.684,6.015,13.283     l18.658-18.66c-5.646-12.139-12.07-22.961-19.146-32.176c12.067,4.482,23.515,10.26,34.175,17.145l17.722-17.723     c-32.28-22.057-71.274-34.973-113.232-34.973C92.518,62.146,2.263,152.402,2.263,263.333     c0,110.938,90.255,201.192,201.187,201.192c110.939,0,201.194-90.254,201.194-201.192c0-44.834-14.749-86.287-39.642-119.771     L347.421,161.14z M142.119,97.697c-15.577,20.299-28.021,48.277-35.911,81.275c-14.893,3.807-28.777,8.5-41.304,14.043     c-11.396,5.039-21.342,10.646-29.758,16.717C51.664,157.984,91.434,116.523,142.119,97.697z M74.838,215.476     c8.099-3.586,16.852-6.779,26.137-9.58c-2.771,18.139-4.258,37.398-4.258,57.438s1.487,39.301,4.258,57.445     c-9.285-2.807-18.038-6-26.137-9.58c-30.514-13.504-48.019-30.941-48.019-47.865C26.82,246.417,44.325,228.972,74.838,215.476z      M64.905,333.659c12.526,5.539,26.411,10.234,41.304,14.035c7.89,33.003,20.334,60.982,35.911,81.279     c-50.686-18.825-90.455-60.284-106.973-112.034C43.562,323.011,53.509,328.615,64.905,333.659 M203.45,439.964     c-20.038,0-40.383-17.69-55.801-48.539c-5.742-11.478-10.603-24.262-14.537-38.028c22.187,3.804,45.942,5.788,70.338,5.788     c24.399,0,48.152-1.984,70.344-5.788c-3.935,13.769-8.799,26.553-14.535,38.028C243.833,422.271,223.492,439.964,203.45,439.964z      M264.786,428.976c15.571-20.297,28.018-48.276,35.91-81.279c14.895-3.8,28.777-8.496,41.303-14.035     c11.395-5.045,21.345-10.648,29.761-16.719C355.237,368.691,315.473,410.149,264.786,428.976z M332.062,311.199     c-8.093,3.58-16.849,6.773-26.13,9.58c2.767-18.146,4.251-37.406,4.251-57.445s-1.484-39.299-4.251-57.438     c9.281,2.801,18.037,5.994,26.13,9.58c30.521,13.496,48.021,30.941,48.021,47.857     C380.082,280.257,362.582,297.695,332.062,311.199z"/>
	    <path d="M460.188,61.982L400.284,2.076c-2.771-2.768-7.252-2.768-10.013,0l-14.045,14.041c-2.763,2.766-2.763,7.244,0,10.014     l1.89,1.889L355.21,45.639l-39.767,6.111c-2.634,0.406-4.814,2.262-5.647,4.797c-0.83,2.535-0.163,5.324,1.723,7.209     l28.887,28.885l-66.913,66.914c-0.991,0.99-1.668,2.252-1.938,3.629l-4.747,23.955c-0.464,2.318,0.266,4.717,1.938,6.381     c1.674,1.672,4.062,2.402,6.383,1.939l23.96-4.748c1.372-0.273,2.638-0.947,3.627-1.941l66.91-66.904l28.885,28.885     c1.886,1.887,4.675,2.553,7.214,1.719c2.529-0.828,4.387-3.016,4.795-5.652l6.111-39.764l17.623-22.91l1.889,1.891     c2.764,2.77,7.245,2.77,10.011,0l14.04-14.039C462.954,69.228,462.954,64.745,460.188,61.982z"/>
    </g>
</svg>
